<?xml version="1.0" encoding="utf-8"?>
<!-- Generator: Adobe Illustrator 28.1.0, SVG Export Plug-In . SVG Version: 6.00 Build 0)  -->
<svg version="1.1" id="Layer_1" xmlns="http://www.w3.org/2000/svg" xmlns:xlink="http://www.w3.org/1999/xlink" x="0px" y="0px"
	 viewBox="0 0 142.27 92.19" style="enable-background:new 0 0 142.27 92.19;" xml:space="preserve">
<style type="text/css">
	.st0{fill:#FFFFFF;}
</style>
<g>
	<path class="st0" d="M127.75,42.57c0,0.47,0,0.94,0,1.42c-0.4,0.55-0.85,1.07-1.2,1.66c-6.19,10.36-13.82,19.43-23.58,26.64
		C84.23,86.12,62.63,86.81,43.2,74.1c-6.95-4.55-13.03-10.12-18.3-16.52c-3.62-4.4-6.93-9.05-10.38-13.59c0-0.47,0-0.94,0-1.42
		c0.4-0.45,0.86-0.85,1.2-1.34c5.63-8.14,12.26-15.32,20.23-21.21C50.49,9.28,66.53,4.89,84.36,9.22
		C98.7,12.7,110,21.11,119.53,32.06C122.45,35.41,125.02,39.06,127.75,42.57z M94.64,45.42c0-12.89-10.52-23.51-23.31-23.53
		c-13.06-0.02-23.71,10.46-23.74,23.37C47.56,58.24,58.14,68.9,71.05,68.91C84.06,68.92,94.64,58.39,94.64,45.42z"/>
	<path class="st0" d="M70.96,59.55c-7.91-0.03-14-6.28-13.98-14.33c0.03-7.91,6.28-14,14.33-13.98c7.91,0.03,14,6.28,13.98,14.33
		C85.26,53.48,79.01,59.58,70.96,59.55z"/>
</g>
</svg>
